<?xml version="1.0" encoding="utf-8"?>
<svg version="1.1" id="Layer_1" xmlns="http://www.w3.org/2000/svg" viewBox="0 0 933.8 444.2" >
<g>
	<g>
		<g>
			<g>
				<defs>
					<path id="SVGID_1_" d="M178.4,434.8h-70.3c-54.9,0-99.4-44.5-99.4-99.4V109c0-54.9,44.5-99.4,99.4-99.4h70.3
						c54.9,0,99.4,44.5,99.4,99.4v226.4C277.8,390.3,233.3,434.8,178.4,434.8z"/>
				</defs>
				<clipPath id="SVGID_2_">
					<use href="#SVGID_1_" overflow="visible"/>
				</clipPath>
				<linearGradient id="background" gradientUnits="userSpaceOnUse" x1="143.287" y1="20.1095" x2="143.287" y2="430.1542">
					<stop  offset="0" style="stop-color:#4C4E4E"/>
					<stop  offset="7.773370e-02" style="stop-color:#6C6A69"/>
					<stop  offset="0.1787" style="stop-color:#949090"/>
					<stop  offset="0.2761" style="stop-color:#B9B5B4"/>
					<stop  offset="0.3678" style="stop-color:#D7D4D2"/>
					<stop  offset="0.4514" style="stop-color:#ECE9E8"/>
					<stop  offset="0.5197" style="stop-color:#F6F3F1"/>
					<stop  offset="0.5838" style="stop-color:#F4F0EB"/>
					<stop  offset="0.6676" style="stop-color:#F0E7DC"/>
					<stop  offset="0.7622" style="stop-color:#E8D9C3"/>
					<stop  offset="0.8648" style="stop-color:#DFC7A3"/>
					<stop  offset="0.9727" style="stop-color:#D3B17F"/>
					<stop  offset="1" style="stop-color:#CFAB75"/>
				</linearGradient>
				<rect id="XMLID_69_" x="7.5" y="7.6" clip-path="url(#SVGID_2_)" fill="url(#background)" width="271.6" height="430.7"/>
			</g>
			<path fill="#FABD3F" d="M229.9,442.1H56.7c-30.4,0-55.1-24.7-55.1-55.1V57.6c0-30.4,24.7-55.1,55.1-55.1h173.2
				c30.4,0,55.1,24.7,55.1,55.1v329.4C285,417.3,260.3,442.1,229.9,442.1z M56.7,16.9C34.3,16.9,16,35.1,16,57.6v329.4
				c0,22.4,18.2,40.7,40.7,40.7h173.2c22.4,0,40.7-18.2,40.7-40.7V57.6c0-22.4-18.2-40.7-40.7-40.7H56.7z"/>
		</g>
	</g>
	<g>
		<g>
			<defs>
				<path id="SVGID_3_" d="M502.1,434.8h-70.3c-54.9,0-99.4-44.5-99.4-99.4V109c0-54.9,44.5-99.4,99.4-99.4h70.3
					c54.9,0,99.4,44.5,99.4,99.4v226.4C601.5,390.3,557,434.8,502.1,434.8z"/>
			</defs>
			<clipPath id="SVGID_4_">
				<use href="#SVGID_3_"  overflow="visible"/>
			</clipPath>
			<rect id="XMLID_68_" x="331.5" y="6.1" clip-path="url(#SVGID_4_)" fill="url(#background)" width="271.6" height="430.7"/>
		</g>
		<path fill="#FABD3F" d="M553.6,442.1H380.4c-30.4,0-55.1-24.7-55.1-55.1V57.6c0-30.4,24.7-55.1,55.1-55.1h173.2
			c30.4,0,55.1,24.7,55.1,55.1v329.4C608.7,417.3,584,442.1,553.6,442.1z M380.4,16.9c-22.4,0-40.7,18.2-40.7,40.7v329.4
			c0,22.4,18.2,40.7,40.7,40.7h173.2c22.4,0,40.7-18.2,40.7-40.7V57.6c0-22.4-18.2-40.7-40.7-40.7H380.4z"/>
	</g>
	<g>
		<g>
			<defs>
				<path id="SVGID_5_" d="M825.9,434.8h-70.3c-54.9,0-99.4-44.5-99.4-99.4V109c0-54.9,44.5-99.4,99.4-99.4h70.3
					c54.9,0,99.4,44.5,99.4,99.4v226.4C925.2,390.3,880.7,434.8,825.9,434.8z"/>
			</defs>
			<clipPath id="SVGID_6_">
				<use href="#SVGID_5_"  overflow="visible"/>
			</clipPath>
			<rect id="XMLID_67_" x="654.3" y="5.4" clip-path="url(#SVGID_6_)" fill="url(#background)" width="271.6" height="430.7"/>
		</g>
		<path id="XMLID_66_" fill="#FABD3F" d="M877.3,442.1H704.1c-30.4,0-55.1-24.7-55.1-55.1V57.6c0-30.4,24.7-55.1,55.1-55.1h173.2
			c30.4,0,55.1,24.7,55.1,55.1v329.4C932.5,417.3,907.7,442.1,877.3,442.1z M704.1,16.9c-22.4,0-40.7,18.2-40.7,40.7v329.4
			c0,22.4,18.2,40.7,40.7,40.7h173.2c22.4,0,40.7-18.2,40.7-40.7V57.6c0-22.4-18.2-40.7-40.7-40.7H704.1z"/>
	</g>
</g>
<g>
	<g>
		<polygon fill="#FEF3F0" points="130.1,193.1 63.9,193.1 63.9,124.6 222.7,124.6 213.9,156.3 214.2,156.4 211.1,165.8 160.6,319.9 
			88.5,319.9"/>
		<path fill="#06060A" d="M88.5,322.3c-0.8,0-1.5-0.4-2-1c-0.5-0.6-0.6-1.4-0.3-2.2l40.6-123.6H63.9c-1.3,0-2.4-1.1-2.4-2.4v-68.5
			c0-1.3,1.1-2.4,2.4-2.4h158.8c0.8,0,1.5,0.4,1.9,1c0.5,0.6,0.6,1.4,0.4,2.1l-8.5,30.6c0.1,0.5,0.1,0.9,0,1.4l-3.1,9.3l-50.5,154.1
			c-0.3,1-1.2,1.7-2.3,1.7L88.5,322.3z M66.3,190.7h63.8c0.8,0,1.5,0.4,2,1c0.5,0.6,0.6,1.4,0.3,2.2L91.9,317.5l67,0l50-152.4
			l2.7-8.2c-0.1-0.4-0.1-0.8,0-1.2l8-28.7H66.3V190.7z"/>
	</g>
	<g>
		<polygon fill="#FEF3F0" points="136.8,188.3 68.7,188.3 68.7,129.4 216.4,129.4 208,159.6 208.1,159.6 206.6,164.3 157.1,315 
			95.2,315.1"/>
	</g>
	<g>
		<polygon fill="#E8284F" points="210,134.3 73.6,134.3 73.6,183.4 143.4,183.4 101.8,310.2 153.6,310.2 202,162.8 202,162.8 
			202.6,161"/>
	</g>
</g>
<g>
	<g>
		<polygon fill="#FEF3F0" points="453.8,193.1 387.6,193.1 387.6,124.6 546.4,124.6 537.6,156.3 537.9,156.4 534.8,165.8 
			484.3,319.9 412.2,319.9"/>
		<path fill="#06060A" d="M412.2,322.3c-0.8,0-1.5-0.4-2-1c-0.5-0.6-0.6-1.4-0.3-2.2l40.6-123.6h-62.9c-1.3,0-2.4-1.1-2.4-2.4v-68.5
			c0-1.3,1.1-2.4,2.4-2.4h158.8c0.8,0,1.5,0.4,1.9,1c0.5,0.6,0.6,1.4,0.4,2.1l-8.5,30.6c0.1,0.5,0.1,0.9,0,1.4l-3.1,9.3l-50.5,154.1
			c-0.3,1-1.2,1.7-2.3,1.7L412.2,322.3z M390,190.7h63.8c0.8,0,1.5,0.4,2,1c0.5,0.6,0.6,1.4,0.3,2.2l-40.6,123.6l67,0l50-152.4
			l2.7-8.2c-0.1-0.4-0.1-0.8,0-1.2l8-28.7H390V190.7z"/>
	</g>
	<g>
		<polygon fill="#FEF3F0" points="460.5,188.3 392.5,188.3 392.5,129.4 540.1,129.4 531.7,159.6 531.8,159.6 530.3,164.3 480.8,315 
			418.9,315.1"/>
	</g>
	<g>
		<polygon fill="#E8284F" points="533.7,134.3 397.3,134.3 397.3,183.4 467.1,183.4 425.6,310.2 477.3,310.2 525.7,162.8 
			525.7,162.8 526.3,161"/>
	</g>
</g>
<g>
	<g>
		<polygon fill="#FEF3F0" points="777.5,193.1 711.3,193.1 711.3,124.6 870.1,124.6 861.3,156.3 861.6,156.4 858.6,165.8 808,319.9 
			736,319.9"/>
		<path fill="#06060A" d="M736,322.3c-0.8,0-1.5-0.4-2-1c-0.5-0.6-0.6-1.4-0.3-2.2l40.6-123.6h-62.9c-1.3,0-2.4-1.1-2.4-2.4v-68.5
			c0-1.3,1.1-2.4,2.4-2.4h158.8c0.8,0,1.5,0.4,1.9,1c0.5,0.6,0.6,1.4,0.4,2.1l-8.5,30.6c0.1,0.5,0.1,0.9,0,1.4l-3.1,9.3l-50.5,154.1
			c-0.3,1-1.2,1.7-2.3,1.7L736,322.3z M713.7,190.7h63.8c0.8,0,1.5,0.4,2,1c0.5,0.6,0.6,1.4,0.3,2.2l-40.6,123.6l67,0l50-152.4
			l2.7-8.2c-0.1-0.4-0.1-0.8,0-1.2l8-28.7H713.7V190.7z"/>
	</g>
	<g>
		<polygon fill="#FEF3F0" points="784.2,188.3 716.2,188.3 716.2,129.4 863.8,129.4 855.4,159.6 855.5,159.6 854,164.3 804.5,315 
			742.6,315.1"/>
	</g>
	<g>
		<polygon fill="#E8284F" points="857.4,134.3 721,134.3 721,183.4 790.9,183.4 749.3,310.2 801,310.2 849.4,162.8 849.4,162.8 
			850,161"/>
	</g>
</g>
</svg>
