<?xml version="1.0" encoding="UTF-8"?>
<svg width="40px" height="40px" viewBox="0 0 40 40" version="1.1" xmlns="http://www.w3.org/2000/svg">
    <g stroke="none" stroke-width="1" fill="none" fill-rule="evenodd">
        <circle fill="#001325" cx="20" cy="20" r="20"></circle>
        <path d="M20,40 C31.045695,40 40,31.045695 40,20 C40,8.954305 31.045695,4.61852778e-14 20,4.61852778e-14 C19.960858,4.61852778e-14 20.0256298,40 20,40 Z" fill="#1AC8E4"></path>
        <g transform="translate(20.325146, 20.381066) rotate(-270) translate(-20.325146, -20.381066) translate(-0.174854, 0.381066)"></g>
        <g transform="translate(16.980560, 8)" fill-rule="nonzero">
            <path d="M19.0234439,12.2982986 L12.4951473,22.761193 L6.00744389,12.3642986 L12.4832041,15.2057181 L19.0234439,12.2982986 Z M6.71244389,11.9892986 L12.4951473,12.8777473 L18.1364439,12.0102986 L12.4857053,14.4985144 L6.71244389,11.9892986 Z" fill="#001325"></path>
            <path d="M19.0231473,12.2984325 L12.4951473,22.761193 L12.4951473,15.2004325 L19.0231473,12.2984325 Z M12.4951473,0.896432508 L19.1511473,11.5634325 L12.4951473,14.4944325 L12.4951473,0.896432508 Z" fill="#E3FBFF"></path>
            <path d="M12.4951473,0.896432508 L19.1510007,11.5634325 L12.4857053,14.4985144 L5.81600071,11.5984325 L12.4951473,0.896432508 Z" fill="#001325"></path>
            <path d="M12.4951473,0.896432508 L19.1511473,11.5634325 L12.4951473,14.4944325 L12.4951473,0.896432508 Z" fill="#FFFFFF"></path>
            <path d="M12.4951473,9.59010252 L19.1074007,11.5821025 L12.4857053,14.4985144 L5.82040068,11.6011025 L12.4951473,9.59010252 Z" fill-opacity="0.202168925" fill="#1AC8E4"></path>
        </g>
        <path d="M10.8692661,11.8810658 L9.30963303,12.7778548 L5.05963303,15.2342769 L3.5,16.1310658 L3.5,24.6310658 L5.05963303,25.5278548 L9.34862385,27.9842769 L10.9082569,28.8810658 L12.4678899,27.9842769 L16.6788991,25.5278548 L18.2385321,24.6310658 L18.2385321,16.1310658 L16.6788991,15.2342769 L12.4288991,12.7778548 L10.8692661,11.8810658 Z M6.61926606,22.8374879 L6.61926606,17.9246438 L10.8692661,15.4682218 L15.1192661,17.9246438 L15.1192661,22.8374879 L10.8692661,25.2939099 L6.61926606,22.8374879 Z" fill="#FFFFFF" fill-rule="nonzero"></path>
    </g>
</svg>